name Visual3d_SIMM_grf.mot
datacolumns 19
datarows 43
range 2.090000 2.510000
endheader
time	ground_force_vx	ground_force_vy	ground_force_vz	ground_force_px	ground_force_py	ground_force_pz	l_ground_force_vx	l_ground_force_vy	l_ground_force_vz	l_ground_force_px	l_ground_force_py	l_ground_force_pz	ground_torque_x	ground_torque_y	ground_torque_z	l_ground_torque_x	l_ground_torque_y	l_ground_torque_z
2.090000	14.415133	270.582458	-19.063482	-0.076695	-0.003279	-0.150334	0.000000	0.000000	0.000000	0.000000	0.000000	0.000000	-0.000965	1.454358	-0.003379	0.000000	0.000000	0.000000
2.100000	17.010677	297.253357	-21.020248	-0.077291	-0.004145	-0.147387	0.000000	0.000000	0.000000	0.000000	0.000000	0.000000	-0.001190	1.794017	-0.004168	0.000000	0.000000	0.000000
2.110000	19.418747	318.209991	-21.585680	-0.078061	-0.004759	-0.144024	0.000000	0.000000	0.000000	0.000000	0.000000	0.000000	-0.001388	2.092371	-0.004861	0.000000	0.000000	0.000000
2.120000	21.624729	333.128723	-20.651369	-0.079012	-0.005117	-0.140384	0.000000	0.000000	0.000000	0.000000	0.000000	0.000000	-0.001541	2.322487	-0.005396	0.000000	0.000000	0.000000
2.130000	23.440422	342.044281	-18.380789	-0.080128	-0.005264	-0.136574	0.000000	0.000000	0.000000	0.000000	0.000000	0.000000	-0.001637	2.468140	-0.005734	0.000000	0.000000	0.000000
2.140000	24.635838	345.315918	-15.137426	-0.081376	-0.005264	-0.132646	0.000000	0.000000	0.000000	0.000000	0.000000	0.000000	-0.001675	2.525064	-0.005866	0.000000	0.000000	0.000000
2.150000	25.075472	343.606018	-11.331544	-0.082722	-0.005177	-0.128630	0.000000	0.000000	0.000000	0.000000	0.000000	0.000000	-0.001657	2.497975	-0.005803	0.000000	0.000000	0.000000
2.160000	24.757494	337.771698	-7.326307	-0.084124	-0.005048	-0.124542	0.000000	0.000000	0.000000	0.000000	0.000000	0.000000	-0.001590	2.396602	-0.005568	0.000000	0.000000	0.000000
2.170000	23.781816	328.774933	-3.409986	-0.085535	-0.004907	-0.120393	0.000000	0.000000	0.000000	0.000000	0.000000	0.000000	-0.001482	2.234362	-0.005191	0.000000	0.000000	0.000000
2.180000	22.305735	317.623383	0.208887	-0.086912	-0.004764	-0.116205	0.000000	0.000000	0.000000	0.000000	0.000000	0.000000	-0.001345	2.027958	-0.004711	0.000000	0.000000	0.000000
2.190000	20.513783	305.287537	3.395523	-0.088215	-0.004621	-0.112028	0.000000	0.000000	0.000000	0.000000	0.000000	0.000000	-0.001191	1.795659	-0.004172	0.000000	0.000000	0.000000
2.200000	18.597382	292.630981	6.077312	-0.089402	-0.004473	-0.107937	0.000000	0.000000	0.000000	0.000000	0.000000	0.000000	-0.001032	1.555109	-0.003613	0.000000	0.000000	0.000000
2.210000	16.736851	280.371063	8.221929	-0.090434	-0.004318	-0.104022	0.000000	0.000000	0.000000	0.000000	0.000000	0.000000	-0.000876	1.321037	-0.003069	0.000000	0.000000	0.000000
2.220000	15.085066	269.049896	9.814372	-0.091283	-0.004155	-0.100368	0.000000	0.000000	0.000000	0.000000	0.000000	0.000000	-0.000733	1.104855	-0.002567	0.000000	0.000000	0.000000
2.230000	13.751172	259.026154	10.838026	-0.091956	-0.003986	-0.097032	0.000000	0.000000	0.000000	0.000000	0.000000	0.000000	-0.000607	0.914449	-0.002124	0.000000	0.000000	0.000000
2.240000	12.794580	250.496307	11.268372	-0.092494	-0.003814	-0.094030	0.000000	0.000000	0.000000	0.000000	0.000000	0.000000	-0.000501	0.755520	-0.001755	0.000000	0.000000	0.000000
2.250000	12.229561	243.535690	11.095160	-0.092951	-0.003644	-0.091338	0.000000	0.000000	0.000000	0.000000	0.000000	0.000000	-0.000419	0.631864	-0.001468	0.000000	0.000000	0.000000
2.260000	12.036487	238.148056	10.359213	-0.093616	-0.003425	-0.089499	0.000000	0.000000	0.000000	0.000000	0.000000	0.000000	-0.000361	0.544473	-0.001265	0.000000	0.000000	0.000000
2.270000	12.175148	234.292450	9.152962	-0.094036	-0.003263	-0.087343	0.000000	0.000000	0.000000	0.000000	0.000000	0.000000	-0.000326	0.491157	-0.001141	0.000000	0.000000	0.000000
2.280000	12.590645	231.890305	7.591512	-0.094464	-0.003100	-0.085384	0.000000	0.000000	0.000000	0.000000	0.000000	0.000000	-0.000310	0.467362	-0.001086	0.000000	0.000000	0.000000
2.290000	13.212297	230.821884	5.795623	-0.094910	-0.002934	-0.083601	0.000000	0.000000	0.000000	0.000000	0.000000	0.000000	-0.000310	0.467463	-0.001086	0.000000	0.000000	0.000000
2.300000	13.953276	230.927246	3.892174	-0.095365	-0.002762	-0.081987	0.000000	0.000000	0.000000	0.000000	0.000000	0.000000	-0.000322	0.485673	-0.001128	0.000000	0.000000	0.000000
2.310000	14.722495	232.012543	2.002783	-0.095803	-0.002583	-0.080528	0.000000	0.000000	0.000000	0.000000	0.000000	0.000000	-0.000343	0.516420	-0.001200	0.000000	0.000000	0.000000
2.320000	15.441264	233.880035	0.223334	-0.096188	-0.002404	-0.079209	0.000000	0.000000	0.000000	0.000000	0.000000	0.000000	-0.000369	0.555600	-0.001291	0.000000	0.000000	0.000000
2.330000	16.046759	236.349594	-1.366611	-0.096488	-0.002232	-0.078019	0.000000	0.000000	0.000000	0.000000	0.000000	0.000000	-0.000398	0.600153	-0.001394	0.000000	0.000000	0.000000
2.340000	16.492794	239.246796	-2.686381	-0.096680	-0.002075	-0.076944	0.000000	0.000000	0.000000	0.000000	0.000000	0.000000	-0.000429	0.647380	-0.001504	0.000000	0.000000	0.000000
2.350000	16.755136	242.402466	-3.667235	-0.096752	-0.001939	-0.075966	0.000000	0.000000	0.000000	0.000000	0.000000	0.000000	-0.000461	0.694614	-0.001614	0.000000	0.000000	0.000000
2.360000	16.833527	245.662216	-4.270468	-0.096081	-0.002249	-0.073564	0.000000	0.000000	0.000000	0.000000	0.000000	0.000000	-0.000491	0.740007	-0.001719	0.000000	0.000000	0.000000
2.370000	16.747049	248.884689	-4.487930	-0.096031	-0.002007	-0.073042	0.000000	0.000000	0.000000	0.000000	0.000000	0.000000	-0.000519	0.782600	-0.001818	0.000000	0.000000	0.000000
2.380000	16.530262	251.944962	-4.348506	-0.095866	-0.001825	-0.072433	0.000000	0.000000	0.000000	0.000000	0.000000	0.000000	-0.000545	0.821374	-0.001908	0.000000	0.000000	0.000000
2.390000	16.226355	254.727905	-3.918364	-0.095627	-0.001684	-0.071765	0.000000	0.000000	0.000000	0.000000	0.000000	0.000000	-0.000567	0.855362	-0.001987	0.000000	0.000000	0.000000
2.400000	15.875699	257.123901	-3.280310	-0.095354	-0.001565	-0.071066	0.000000	0.000000	0.000000	0.000000	0.000000	0.000000	-0.000586	0.883998	-0.002054	0.000000	0.000000	0.000000
2.410000	15.510522	259.028839	-2.511850	-0.095090	-0.001457	-0.070355	0.000000	0.000000	0.000000	0.000000	0.000000	0.000000	-0.000601	0.906376	-0.002106	0.000000	0.000000	0.000000
2.420000	15.157689	260.351410	-1.688431	-0.094874	-0.001351	-0.069639	0.000000	0.000000	0.000000	0.000000	0.000000	0.000000	-0.000611	0.921368	-0.002141	0.000000	0.000000	0.000000
2.430000	14.837329	261.023041	-0.871420	-0.094739	-0.001241	-0.068916	0.000000	0.000000	0.000000	0.000000	0.000000	0.000000	-0.000616	0.927991	-0.002156	0.000000	0.000000	0.000000
2.440000	14.556095	260.975616	-0.069762	-0.094703	-0.001120	-0.068186	0.000000	0.000000	0.000000	0.000000	0.000000	0.000000	-0.000614	0.925339	-0.002150	0.000000	0.000000	0.000000
2.450000	14.312742	260.124298	0.742550	-0.094772	-0.000982	-0.067450	0.000000	0.000000	0.000000	0.000000	0.000000	0.000000	-0.000605	0.911898	-0.002119	0.000000	0.000000	0.000000
2.460000	14.107002	258.393005	1.573858	-0.094944	-0.000822	-0.066715	0.300760	31.405577	-12.514336	0.107364	0.004643	0.257955	-0.000588	0.886436	-0.002059	-0.000560	-0.063700	0.001079
2.470000	13.934532	255.715393	2.420804	-0.095200	-0.000633	-0.065992	0.463185	47.848759	-13.049207	0.108531	0.003967	0.246320	-0.000563	0.848343	-0.001971	0.000324	0.036793	-0.000623
2.480000	13.782919	252.028549	3.292531	-0.095507	-0.000407	-0.065300	-0.269445	67.807457	-12.140515	0.109300	0.003265	0.237536	-0.000528	0.796618	-0.001851	0.002783	0.316357	-0.005360
2.490000	13.642323	247.283005	4.185601	-0.095828	-0.000123	-0.064662	-2.123653	91.010536	-10.487193	0.109351	0.002664	0.231740	-0.000484	0.730156	-0.001696	0.006341	0.720810	-0.012212
2.500000	13.511275	241.458313	5.060615	-0.096127	0.000241	-0.064097	-5.124961	116.642136	-8.967158	0.108560	0.002255	0.229098	-0.000431	0.648978	-0.001508	0.010274	1.167953	-0.019787
2.510000	13.379809	234.520401	5.879361	-0.096386	0.000713	-0.063623	-8.867858	143.183395	-8.013114	0.107011	0.002050	0.229639	-0.000367	0.553693	-0.001286	0.014021	1.593942	-0.027004
